<?xml version="1.0" encoding="utf-8"?>
<!-- Svg Vector Icons : http://www.onlinewebfonts.com/icon -->
<!DOCTYPE svg PUBLIC "-//W3C//DTD SVG 1.1//EN" "http://www.w3.org/Graphics/SVG/1.1/DTD/svg11.dtd">
<svg version="1.1" xmlns="http://www.w3.org/2000/svg" xmlns:xlink="http://www.w3.org/1999/xlink" x="0px" y="0px" viewBox="0 0 256 256" enable-background="new 0 0 256 256" xml:space="preserve">
<metadata> Svg Vector Icons : http://www.onlinewebfonts.com/icon </metadata>
<g><g><path fill="currentColor" d="M246,122.4c0,3.7,0,7.4,0,11.1c-0.1,0.7-0.3,1.5-0.4,2.2c-0.8,5.9-1.3,11.9-2.5,17.8c-9.9,46.5-48.5,83.2-95.5,90.8c-4.7,0.8-9.4,1.2-14.1,1.8c-3.7,0-7.4,0-11.1,0c-0.7-0.1-1.3-0.3-2-0.4c-5.3-0.7-10.7-1-16-2.1c-64.7-13.3-105.7-76.6-91.6-141c13.3-60.8,72.4-101,133.9-91c50,8.1,89.2,47,97.5,96.9C245,113.1,245.4,117.7,246,122.4z M105.8,195.4c0.4-0.3,0.7-0.5,0.9-0.7c27.4-26.5,54.8-53.1,82.1-79.6c0.8-0.8,1.5-2.2,1.7-3.3c2.1-12.5,4-25,5.9-37.5c0.1-0.9-0.3-2.3-1-3c-2.9-3.2-6-6.2-8.9-9.3c-1-1.1-2-1.4-3.4-1.3c-12.6,1.6-25.1,3.2-37.7,4.9c-1.2,0.2-2.5,0.8-3.3,1.7c-24.1,23.2-48.2,46.5-72.2,69.9c-3.5,3.4-6.7,7.1-10.2,10.7C74.9,163.5,90.3,179.4,105.8,195.4z"/><path fill="#000000" d="M162.8,104.8c-6.1,0-11.1-5-11.2-11.1c0-6.2,5.1-11.3,11.3-11.3c6.1,0,11.1,5,11.2,11.1C174,99.8,169,104.9,162.8,104.8z"/></g></g>
</svg>