<?xml version="1.0" encoding="utf-8"?><!-- Uploaded to: SVG Repo, www.svgrepo.com, Generator: SVG Repo Mixer Tools -->
<svg version="1.1" id="Uploaded to svgrepo.com" xmlns="http://www.w3.org/2000/svg" xmlns:xlink="http://www.w3.org/1999/xlink" 
	 width="800px" height="800px" viewBox="0 0 32 32" xml:space="preserve">
<style type="text/css">
	.feather_een{fill:#111918;}
	.st0{fill:#0B1719;}
</style>
<path class="feather_een" d="M28.878,16.878l-14-14C14.316,2.316,13.553,2,12.757,2H5C3.343,2,2,3.343,2,5v7.757
	c0,0.796,0.316,1.559,0.879,2.121l14,14c1.172,1.172,3.071,1.172,4.243,0l7.757-7.757C30.05,19.949,30.05,18.05,28.878,16.878z
	 M28.171,20.414l-7.757,7.757c-0.781,0.781-2.047,0.781-2.828,0l-14-14C3.211,13.796,3,13.288,3,12.757V5c0-1.105,0.895-2,2-2h7.757
	c0.53,0,1.039,0.211,1.414,0.586l14,14C28.952,18.367,28.952,19.633,28.171,20.414z M14.707,12L20,17.293
	c0.195,0.195,0.195,0.512,0,0.707l0,0c-0.195,0.195-0.512,0.195-0.707,0L14,12.707c-0.195-0.195-0.195-0.512,0-0.707l0,0
	C14.195,11.805,14.512,11.805,14.707,12z M12.707,14L18,19.293c0.195,0.195,0.195,0.512,0,0.707l0,0
	c-0.195,0.195-0.512,0.195-0.707,0L12,14.707c-0.195-0.195-0.195-0.512,0-0.707l0,0C12.195,13.805,12.512,13.805,12.707,14z M7,5
	C5.895,5,5,5.895,5,7c0,1.105,0.895,2,2,2c1.105,0,2-0.895,2-2C9,5.895,8.105,5,7,5z M7,8C6.449,8,6,7.551,6,7s0.449-1,1-1
	s1,0.449,1,1S7.551,8,7,8z"/>
</svg>